<?xml version="1.0" encoding="UTF-8"?><svg xmlns="http://www.w3.org/2000/svg" xmlns:xlink="http://www.w3.org/1999/xlink" height="160.0" preserveAspectRatio="xMidYMid meet" version="1.0" viewBox="0.0 0.0 500.0 160.0" width="500.0" zoomAndPan="magnify"><g id="change1_1"><path d="M500,72.1v15c0,40.2-32.7,72.9-72.9,72.9H72.9l0,0l0,0C32.6,160,0,127.3,0,87.1v-15l0,0 C0.5,32.2,32.9,0,72.9,0l0,0l0,0h354.2C467.1,0,499.7,32.2,500,72.1L500,72.1z M500,72.1v15c0,40.2-32.7,72.9-72.9,72.9H72.9l0,0 l0,0C32.6,160,0,127.3,0,87.1v-15l0,0C0.5,32.2,32.9,0,72.9,0l0,0l0,0h354.2C467.1,0,499.7,32.2,500,72.1L500,72.1z" fill="#FCD24F"/></g><g id="change2_1"><path d="M427.1,10.1L427.1,10.1c34.6,0,62.8,28.2,62.8,62.8s-28.2,62.8-62.8,62.8H72.9h-0.1l0,0 c-34.6-0.1-62.7-28.2-62.7-62.8c0-34.6,28.1-62.8,62.7-62.8h0.3h0.1H427.1 M427.1,0H72.9l0,0l0,0C32.6,0,0,32.6,0,72.9 c0,40.3,32.6,72.9,72.9,72.9l0,0l0,0h354.2c40.2,0,72.9-32.6,72.9-72.9C500,32.6,467.4,0,427.1,0L427.1,0z M161.6,98.5 c-1.9-1.1-3.4-2.6-4.4-4.5c-1-1.9-1.6-4.1-1.6-6.5v-1.8l7.4-0.8v1.9c0,1.8,0.5,3.3,1.4,4.4c0.9,1.1,2.1,1.6,3.7,1.6 c1.5,0,2.7-0.5,3.6-1.4c0.9-0.9,1.4-2,1.4-3.6c0-1.7-0.5-3.3-1.5-4.7c-0.9-1.5-2.8-3.6-5.6-6.3c-3.8-3.6-6.4-6.6-7.8-9 c-1.4-2.4-2.1-5-2.1-7.9c0-3.8,1-6.9,3.2-9.2c2.1-2.3,5-3.4,8.7-3.4s6.5,1.1,8.7,3.5c2.1,2.3,3.2,5.4,3.2,9.2v1.4l-7.4,0.8v-1.5 c0-1.9-0.3-3.5-1.1-4.5c-0.7-1-1.8-1.6-3.2-1.6c-1.4,0-2.4,0.5-3.2,1.2c-0.7,0.8-1.1,2-1.1,3.7c0,1.6,0.5,3.2,1.5,4.6 s2.8,3.6,5.6,6.4c3.8,3.8,6.4,6.9,7.8,9.2c1.4,2.4,2.1,4.8,2.1,7.7c0,2.5-0.6,4.6-1.6,6.5c-1,1.9-2.5,3.4-4.4,4.5s-4.1,1.6-6.5,1.6 C165.7,100.1,163.4,99.5,161.6,98.5z M195.5,48.1h24.8v7.3h-8.5v43.9H204V55.4h-8.5L195.5,48.1L195.5,48.1z M249.5,88h-8.3 l-1.7,11.4h-7.8l8.5-51.3h10.4l8.5,51.3h-7.9L249.5,88z M248.4,80.6l-3.2-21.4l-3.2,21.4H248.4z M293.4,99.4l-5.6-21.2h-4.1v21.2 h-7.7V48.1h12.2c3.7,0,6.6,1.1,8.9,3.4s3.3,5.2,3.3,8.9V66c0,2.4-0.5,4.4-1.4,6.2c-0.9,1.8-2.3,3.3-3.9,4.3l6.5,22.9L293.4,99.4 L293.4,99.4z M283.8,70.9h4.1c1.5,0,2.7-0.5,3.5-1.2c0.8-0.8,1.2-2,1.2-3.5v-6c0-1.5-0.5-2.7-1.2-3.5s-2-1.2-3.5-1.2h-4.1V70.9 L283.8,70.9z M316.2,48.1H341v7.3h-8.5v43.9h-7.8V55.4h-8.5v-7.3H316.2z" fill="#1F1347"/></g></svg>